<?xml version="1.0" encoding="UTF-8" standalone="no"?>
<svg
   xmlns:dc="http://purl.org/dc/elements/1.1/"
   xmlns:cc="http://creativecommons.org/ns#"
   xmlns:rdf="http://www.w3.org/1999/02/22-rdf-syntax-ns#"
   xmlns:svg="http://www.w3.org/2000/svg"
   xmlns="http://www.w3.org/2000/svg"
   xmlns:sodipodi="http://sodipodi.sourceforge.net/DTD/sodipodi-0.dtd"
   xmlns:inkscape="http://www.inkscape.org/namespaces/inkscape"
   width="1055.4882"
   height="817.37793"
   version="1.1"
   id="svg851"
   sodipodi:docname="Letter-sized-shield-for-A4-frame-lasercut .75mm outward from centrebothsides.svg"
   inkscape:version="0.92.4 (5da689c313, 2019-01-14)">
  <metadata
     id="metadata855">
    <rdf:RDF>
      <cc:Work
         rdf:about="">
        <dc:format>image/svg+xml</dc:format>
        <dc:type
           rdf:resource="http://purl.org/dc/dcmitype/StillImage" />
        <dc:title></dc:title>
      </cc:Work>
    </rdf:RDF>
  </metadata>
  <sodipodi:namedview
     pagecolor="#ffffff"
     bordercolor="#666666"
     borderopacity="1"
     objecttolerance="10"
     gridtolerance="10"
     guidetolerance="10"
     inkscape:pageopacity="0"
     inkscape:pageshadow="2"
     inkscape:window-width="2560"
     inkscape:window-height="1057"
     id="namedview853"
     showgrid="false"
     inkscape:zoom="0.79107746"
     inkscape:cx="914.48171"
     inkscape:cy="410.06801"
     inkscape:window-x="-8"
     inkscape:window-y="-8"
     inkscape:window-maximized="1"
     inkscape:current-layer="g849"
     fit-margin-top="0"
     fit-margin-left="0"
     fit-margin-right="0"
     fit-margin-bottom="0" />
  <desc
     id="desc815">C:\Users\Office\Desktop\Letter-sized-shield-for-A4-frame-lasercut.dxf - scale = 1.000000, origin = (0.000000, 0.000000), method = auto</desc>
  <defs
     id="defs829">
    <marker
       id="DistanceX"
       orient="auto"
       refX="0"
       refY="0"
       style="overflow:visible">
      <path
         d="M 3,-3 -3,3 M 0,-5 V 5"
         style="stroke:#000000;stroke-width:0.5"
         id="path817"
         inkscape:connector-curvature="0" />
    </marker>
    <pattern
       height="8"
       id="Hatch"
       patternUnits="userSpaceOnUse"
       width="8"
       x="0"
       y="0">
      <path
         d="M8 4 l-4,4"
         linecap="square"
         stroke="#000000"
         stroke-width="0.25"
         id="path820" />
      <path
         d="M6 2 l-4,4"
         linecap="square"
         stroke="#000000"
         stroke-width="0.25"
         id="path822" />
      <path
         d="M4 0 l-4,4"
         linecap="square"
         stroke="#000000"
         stroke-width="0.25"
         id="path824" />
    </pattern>
    <symbol
       id="*MODEL_SPACE" />
    <symbol
       id="*PAPER_SPACE" />
  </defs>
  <g
     inkscape:groupmode="layer"
     inkscape:label="0"
     id="g849"
     transform="translate(527.74409,-305.64173)">
    <path
       d="m -403.46457,1028.0315 a 11.338583,11.338583 0 1 0 -22.67716,0 11.338583,11.338583 0 1 0 22.67716,0 z"
       style="fill:none;stroke:#fd0000;stroke-opacity:1"
       id="path831"
       inkscape:connector-curvature="0" />
    <path
       d="m 82.204725,1028.0315 a 11.338583,11.338583 0 1 0 -22.677166,0 11.338583,11.338583 0 1 0 22.677166,0 z"
       style="fill:none;stroke:#fd0000;stroke-opacity:1"
       id="path833"
       inkscape:connector-curvature="0" />
    <path
       d="m 505.51181,1028.0315 a 11.338583,11.338583 0 1 0 -22.67716,0 11.338583,11.338583 0 1 0 22.67716,0 z"
       style="fill:none;stroke:#fd0000;stroke-opacity:1"
       id="path835"
       inkscape:connector-curvature="0" />
    <path
       d="m 426.14173,1028.0315 a 11.338583,11.338583 0 1 0 -22.67716,0 11.338583,11.338583 0 1 0 22.67716,0 z"
       style="fill:none;stroke:#fd0000;stroke-opacity:1"
       id="path837"
       inkscape:connector-curvature="0" />
    <path
       d="m 161.5748,1028.0315 a 11.338583,11.338583 0 1 0 -22.67716,0 11.338583,11.338583 0 1 0 22.67716,0 z"
       style="fill:none;stroke:#fd0000;stroke-opacity:1"
       id="path839"
       inkscape:connector-curvature="0" />
    <path
       d="m -59.527559,1028.0315 a 11.338583,11.338583 0 1 0 -22.677166,0 11.338583,11.338583 0 1 0 22.677166,0 z"
       style="fill:none;stroke:#fd0000;stroke-opacity:1"
       id="path841"
       inkscape:connector-curvature="0" />
    <path
       d="m -482.83465,1028.0315 a 11.338583,11.338583 0 1 0 -22.67716,0 11.338583,11.338583 0 1 0 22.67716,0 z"
       style="fill:none;stroke:#fd0000;stroke-opacity:1"
       id="path843"
       inkscape:connector-curvature="0" />
    <path
       d="m -138.89764,1028.0315 a 11.338583,11.338583 0 1 0 -22.67716,0 11.338583,11.338583 0 1 0 22.67716,0 z"
       style="fill:none;stroke:#fd0000;stroke-opacity:1"
       id="path845"
       inkscape:connector-curvature="0" />
    <path
       d="M -527.24409,532.91339 A 226.77165,226.77165 0 0 1 -300.47244,306.14173 H 300.47244 A 226.77165,226.77165 0 0 1 527.24409,532.91339 V 1103.622 a 18.897638,18.897638 0 0 1 -18.89763,18.8977 H -508.34646 a 18.897638,18.897638 0 0 1 -18.89763,-18.8977 z"
       style="fill:none;stroke:#fd0000;stroke-opacity:1"
       id="path847"
       inkscape:connector-curvature="0" />
  </g>
</svg>
