<?xml version="1.0" encoding="UTF-8" standalone="no"?>
<svg
   xmlns:dc="http://purl.org/dc/elements/1.1/"
   xmlns:cc="http://creativecommons.org/ns#"
   xmlns:rdf="http://www.w3.org/1999/02/22-rdf-syntax-ns#"
   xmlns:svg="http://www.w3.org/2000/svg"
   xmlns="http://www.w3.org/2000/svg"
   xmlns:sodipodi="http://sodipodi.sourceforge.net/DTD/sodipodi-0.dtd"
   xmlns:inkscape="http://www.inkscape.org/namespaces/inkscape"
   width="11in"
   height="8.5in"
   version="1.1"
   id="svg5530"
   sodipodi:docname="A4-standard-sheetErics8.5-11.svg"
   inkscape:version="0.92.4 (5da689c313, 2019-01-14)">
  <metadata
     id="metadata5534">
    <rdf:RDF>
      <cc:Work
         rdf:about="">
        <dc:format>image/svg+xml</dc:format>
        <dc:type
           rdf:resource="http://purl.org/dc/dcmitype/StillImage" />
        <dc:title></dc:title>
      </cc:Work>
    </rdf:RDF>
  </metadata>
  <sodipodi:namedview
     pagecolor="#ffffff"
     bordercolor="#666666"
     borderopacity="1"
     objecttolerance="10"
     gridtolerance="10"
     guidetolerance="10"
     inkscape:pageopacity="0"
     inkscape:pageshadow="2"
     inkscape:window-width="1366"
     inkscape:window-height="706"
     id="namedview5532"
     showgrid="false"
     units="in"
     inkscape:zoom="0.59465222"
     inkscape:cx="396.8504"
     inkscape:cy="352.14039"
     inkscape:window-x="-8"
     inkscape:window-y="-8"
     inkscape:window-maximized="1"
     inkscape:current-layer="g5528" />
  <desc
     id="desc5494">C:\Users\Donkey\Downloads\A4-standard-sheet.dxf - scale = 1.000000, origin = (0.000000, 0.000000), method = manual</desc>
  <defs
     id="defs5508">
    <marker
       id="DistanceX"
       orient="auto"
       refX="0"
       refY="0"
       style="overflow:visible">
      <path
         d="M 3,-3 -3,3 M 0,-5 V 5"
         style="stroke:#000000;stroke-width:0.5"
         id="path5496"
         inkscape:connector-curvature="0" />
    </marker>
    <pattern
       height="8"
       id="Hatch"
       patternUnits="userSpaceOnUse"
       width="8"
       x="0"
       y="0">
      <path
         d="M8 4 l-4,4"
         linecap="square"
         stroke="#000000"
         stroke-width="0.25"
         id="path5499" />
      <path
         d="M6 2 l-4,4"
         linecap="square"
         stroke="#000000"
         stroke-width="0.25"
         id="path5501" />
      <path
         d="M4 0 l-4,4"
         linecap="square"
         stroke="#000000"
         stroke-width="0.25"
         id="path5503" />
    </pattern>
    <symbol
       id="*MODEL_SPACE" />
    <symbol
       id="*PAPER_SPACE" />
  </defs>
  <g
     inkscape:groupmode="layer"
     inkscape:label="0"
     id="g5528"
     transform="translate(0,-306.51965)">
    <path
       d="m 950.69479,1081.3138 a 11.338585,11.338585 0 1 0 -22.67717,0 11.338585,11.338585 0 1 0 22.67717,0 z"
       style="fill:none;stroke:#000000"
       id="path5510"
       inkscape:connector-curvature="0" />
    <path
       d="m 391.32471,1081.3138 a 11.338585,11.338585 0 1 0 -22.67717,0 11.338585,11.338585 0 1 0 22.67717,0 z"
       style="fill:none;stroke:#000000"
       id="path5512"
       inkscape:connector-curvature="0" />
    <path
       d="m 1030.0649,1081.3138 a 11.3386,11.3386 0 1 0 -22.6772,0 11.3386,11.3386 0 1 0 22.6772,0 z"
       style="fill:none;stroke:#000000"
       id="path5514"
       inkscape:connector-curvature="0" />
    <path
       d="m 686.12786,1081.3138 a 11.338585,11.338585 0 1 0 -22.67717,0 11.338585,11.338585 0 1 0 22.67717,0 z"
       style="fill:none;stroke:#000000"
       id="path5516"
       inkscape:connector-curvature="0" />
    <path
       d="m 606.75778,1081.3138 a 11.338585,11.338585 0 1 0 -22.67717,0 11.338585,11.338585 0 1 0 22.67717,0 z"
       style="fill:none;stroke:#000000"
       id="path5518"
       inkscape:connector-curvature="0" />
    <path
       d="m 47.3877,1081.3138 a 11.338583,11.338583 0 1 0 -22.67716,0 11.338583,11.338583 0 1 0 22.67716,0 z"
       style="fill:none;stroke:#000000"
       id="path5520"
       inkscape:connector-curvature="0" />
    <path
       d="m 470.69479,1081.3138 a 11.338585,11.338585 0 1 0 -22.67717,0 11.338585,11.338585 0 1 0 22.67717,0 z"
       style="fill:none;stroke:#000000"
       id="path5522"
       inkscape:connector-curvature="0" />
    <path
       d="m 126.75778,1081.3138 a 11.338585,11.338585 0 1 0 -22.67717,0 11.338585,11.338585 0 1 0 22.67717,0 z"
       style="fill:none;stroke:#000000"
       id="path5524"
       inkscape:connector-curvature="0" />
    <path
       d="M 1086.7578,331.07761 V 1124.7784 H -31.98238 V 331.07761 Z"
       style="fill:none;stroke:#000000"
       id="path5526"
       inkscape:connector-curvature="0" />
  </g>
</svg>
